<svg id="visual" viewBox="0 0 900 600" width="900" height="600" xmlns="http://www.w3.org/2000/svg" xmlns:xlink="http://www.w3.org/1999/xlink" version="1.1"><rect x="0" y="0" width="900" height="600" fill="#4F6367"></rect><defs><linearGradient id="grad1_0" x1="33.3%" y1="0%" x2="100%" y2="100%"><stop offset="20%" stop-color="#fe5f55" stop-opacity="1"></stop><stop offset="80%" stop-color="#fe5f55" stop-opacity="1"></stop></linearGradient></defs><defs><linearGradient id="grad1_1" x1="33.3%" y1="0%" x2="100%" y2="100%"><stop offset="20%" stop-color="#fe5f55" stop-opacity="1"></stop><stop offset="80%" stop-color="#d55c9c" stop-opacity="1"></stop></linearGradient></defs><defs><linearGradient id="grad1_2" x1="33.3%" y1="0%" x2="100%" y2="100%"><stop offset="20%" stop-color="#836fb1" stop-opacity="1"></stop><stop offset="80%" stop-color="#d55c9c" stop-opacity="1"></stop></linearGradient></defs><defs><linearGradient id="grad1_3" x1="33.3%" y1="0%" x2="100%" y2="100%"><stop offset="20%" stop-color="#836fb1" stop-opacity="1"></stop><stop offset="80%" stop-color="#477093" stop-opacity="1"></stop></linearGradient></defs><defs><linearGradient id="grad1_4" x1="33.3%" y1="0%" x2="100%" y2="100%"><stop offset="20%" stop-color="#4f6367" stop-opacity="1"></stop><stop offset="80%" stop-color="#477093" stop-opacity="1"></stop></linearGradient></defs><defs><linearGradient id="grad2_0" x1="0%" y1="0%" x2="66.7%" y2="100%"><stop offset="20%" stop-color="#fe5f55" stop-opacity="1"></stop><stop offset="80%" stop-color="#fe5f55" stop-opacity="1"></stop></linearGradient></defs><defs><linearGradient id="grad2_1" x1="0%" y1="0%" x2="66.7%" y2="100%"><stop offset="20%" stop-color="#d55c9c" stop-opacity="1"></stop><stop offset="80%" stop-color="#fe5f55" stop-opacity="1"></stop></linearGradient></defs><defs><linearGradient id="grad2_2" x1="0%" y1="0%" x2="66.7%" y2="100%"><stop offset="20%" stop-color="#d55c9c" stop-opacity="1"></stop><stop offset="80%" stop-color="#836fb1" stop-opacity="1"></stop></linearGradient></defs><defs><linearGradient id="grad2_3" x1="0%" y1="0%" x2="66.7%" y2="100%"><stop offset="20%" stop-color="#477093" stop-opacity="1"></stop><stop offset="80%" stop-color="#836fb1" stop-opacity="1"></stop></linearGradient></defs><defs><linearGradient id="grad2_4" x1="0%" y1="0%" x2="66.7%" y2="100%"><stop offset="20%" stop-color="#477093" stop-opacity="1"></stop><stop offset="80%" stop-color="#4f6367" stop-opacity="1"></stop></linearGradient></defs><g transform="translate(900, 0)"><path d="M0 459.7C-41.4 459 -82.9 458.4 -119 444C-155.1 429.7 -185.9 401.7 -218.5 378.5C-251.1 355.2 -285.6 336.7 -307.6 307.6C-329.6 278.5 -339 238.7 -355.1 205C-371.2 171.3 -393.9 143.7 -412.5 110.5C-431 77.4 -445.4 38.7 -459.7 0L0 0Z" fill="#466b7c"></path><path d="M0 367.8C-33.1 367.2 -66.3 366.7 -95.2 355.2C-124.1 343.8 -148.7 321.4 -174.8 302.8C-200.9 284.2 -228.5 269.4 -246.1 246.1C-263.6 222.8 -271.2 191 -284.1 164C-296.9 137 -315.1 114.9 -330 88.4C-344.8 61.9 -356.3 30.9 -367.8 0L0 0Z" fill="#5d72a7"></path><path d="M0 275.8C-24.9 275.4 -49.7 275 -71.4 266.4C-93.1 257.8 -111.5 241 -131.1 227.1C-150.7 213.1 -171.4 202 -184.6 184.6C-197.7 167.1 -203.4 143.2 -213 123C-222.7 102.8 -236.3 86.2 -247.5 66.3C-258.6 46.4 -267.2 23.2 -275.8 0L0 0Z" fill="#ae67ae"></path><path d="M0 183.9C-16.6 183.6 -33.1 183.4 -47.6 177.6C-62 171.9 -74.3 160.7 -87.4 151.4C-100.5 142.1 -114.3 134.7 -123 123C-131.8 111.4 -135.6 95.5 -142 82C-148.5 68.5 -157.6 57.5 -165 44.2C-172.4 30.9 -178.1 15.5 -183.9 0L0 0Z" fill="#f1577d"></path><path d="M0 91.9C-8.3 91.8 -16.6 91.7 -23.8 88.8C-31 85.9 -37.2 80.3 -43.7 75.7C-50.2 71 -57.1 67.3 -61.5 61.5C-65.9 55.7 -67.8 47.7 -71 41C-74.2 34.3 -78.8 28.7 -82.5 22.1C-86.2 15.5 -89.1 7.7 -91.9 0L0 0Z" fill="#fe5f55"></path></g><g transform="translate(0, 600)"><path d="M0 -459.7C32.2 -430.4 64.5 -401.1 106.4 -397C148.3 -392.9 199.8 -414.1 229.9 -398.1C259.9 -382.1 268.3 -329 297.7 -297.7C327.1 -266.4 377.4 -257.1 394 -227.5C410.7 -197.9 393.6 -148.2 398.9 -106.9C404.3 -65.6 432 -32.8 459.7 0L0 0Z" fill="#466b7c"></path><path d="M0 -367.8C25.8 -344.3 51.6 -320.9 85.1 -317.6C118.6 -314.3 159.9 -331.3 183.9 -318.5C207.9 -305.7 214.6 -263.2 238.2 -238.2C261.7 -213.1 301.9 -205.7 315.2 -182C328.5 -158.3 314.9 -118.5 319.1 -85.5C323.4 -52.5 345.6 -26.2 367.8 0L0 0Z" fill="#5d72a7"></path><path d="M0 -275.8C19.3 -258.2 38.7 -240.6 63.8 -238.2C89 -235.8 119.9 -248.5 137.9 -238.9C155.9 -229.3 161 -197.4 178.6 -178.6C196.2 -159.9 226.4 -154.2 236.4 -136.5C246.4 -118.8 236.2 -88.9 239.4 -64.1C242.6 -39.4 259.2 -19.7 275.8 0L0 0Z" fill="#ae67ae"></path><path d="M0 -183.9C12.9 -172.2 25.8 -160.4 42.5 -158.8C59.3 -157.2 79.9 -165.6 91.9 -159.2C103.9 -152.9 107.3 -131.6 119.1 -119.1C130.8 -106.6 151 -102.8 157.6 -91C164.3 -79.2 157.4 -59.3 159.6 -42.8C161.7 -26.2 172.8 -13.1 183.9 0L0 0Z" fill="#f1577d"></path><path d="M0 -91.9C6.4 -86.1 12.9 -80.2 21.3 -79.4C29.7 -78.6 40 -82.8 46 -79.6C52 -76.4 53.7 -65.8 59.5 -59.5C65.4 -53.3 75.5 -51.4 78.8 -45.5C82.1 -39.6 78.7 -29.6 79.8 -21.4C80.9 -13.1 86.4 -6.6 91.9 0L0 0Z" fill="#fe5f55"></path></g></svg>